PathFileType        4      (X/Y/Z)      C:\Users\pc\Desktop\IMUTRC\Sujet_05\Sujet_05_velo_60.trc         
DataRate	CameraRate	NumFrames	NumMarkers	Units	OrigDataRate	OrigDataStartFrame	OrigNumFrames
60.0	60.0	4	64	mm	60.0	121	966
Frame#	Time	pHipOrigin			pRightASI			pLeftASI			pRightCSI			pLeftCSI			pRightIschialTub			pLeftIschialTub			pSacrum			pL5SpinalProcess			pL3SpinalProcess			pT12SpinalProcess			pIJ			pT4SpinalProcess			pT8SpinalProcess			pPX			pC7SpinalProcess			pTopOfHead			pRightAuricularis			pLeftAuricularis			pBackOfHead			pRightAcromion			pLeftAcromion			pRightArmLatEpicondyle			pRightArmMedEpicondyle			pLeftArmLatEpicondyle			pLeftArmMedEpicondyle			pRightUlnarStyloid			pRightRadialStyloid			pRightOlecranon			pLeftUlnarStyloid			pLeftRadialStyloid			pLeftOlecranon			pRightTopOfHand			pRightPinky			pRightBallHand			pLeftTopOfHand			pLeftPinky			pLeftBallHand			pRightGreaterTrochanter			pRightKneeLatEpicondyle			pRightKneeMedEpicondyle			pRightPatella			pLeftGreaterTrochanter			pLeftKneeLatEpicondyle			pLeftKneeMedEpicondyle			pLeftPatella			pRightTibialTub			pRightLatMalleolus			pRightMedMalleolus			pLeftTibialTub			pLeftLatMalleolus			pLeftMedMalleolus			pRightHeelFoot			pRightFirstMetatarsal			pRightFifthMetatarsal			pRightPivotFoot			pRightHeelCenter			pRightToe			pLeftHeelFoot			pLeftFirstMetatarsal			pLeftFifthMetatarsal			pLeftPivotFoot			pLeftHeelCenter			pLeftToe			
		X1	Y1	Z1	X2	Y2	Z2	X3	Y3	Z3	X4	Y4	Z4	X5	Y5	Z5	X6	Y6	Z6	X7	Y7	Z7	X8	Y8	Z8	X9	Y9	Z9	X10	Y10	Z10	X11	Y11	Z11	X12	Y12	Z12	X13	Y13	Z13	X14	Y14	Z14	X15	Y15	Z15	X16	Y16	Z16	X17	Y17	Z17	X18	Y18	Z18	X19	Y19	Z19	X20	Y20	Z20	X21	Y21	Z21	X22	Y22	Z22	X23	Y23	Z23	X24	Y24	Z24	X25	Y25	Z25	X26	Y26	Z26	X27	Y27	Z27	X28	Y28	Z28	X29	Y29	Z29	X30	Y30	Z30	X31	Y31	Z31	X32	Y32	Z32	X33	Y33	Z33	X34	Y34	Z34	X35	Y35	Z35	X36	Y36	Z36	X37	Y37	Z37	X38	Y38	Z38	X39	Y39	Z39	X40	Y40	Z40	X41	Y41	Z41	X42	Y42	Z42	X43	Y43	Z43	X44	Y44	Z44	X45	Y45	Z45	X46	Y46	Z46	X47	Y47	Z47	X48	Y48	Z48	X49	Y49	Z49	X50	Y50	Z50	X51	Y51	Z51	X52	Y52	Z52	X53	Y53	Z53	X54	Y54	Z54	X55	Y55	Z55	X56	Y56	Z56	X57	Y57	Z57	X58	Y58	Z58	X59	Y59	Z59	X60	Y60	Z60	X61	Y61	Z61	X62	Y62	Z62	X63	Y63	Z63	X64	Y64	Z64	
121	2.0	0.0	1249.96063	7.653801422948546E-14	72.63761000000001	1334.75089	124.95896000000009	46.291399999999996	1354.04671	-122.82527999999992	27.366660000000007	1396.99845	113.36291000000008	5.380559999999995	1413.14014	-92.67556999999991	-44.71434	1191.33104	52.59965000000007	-55.661	1199.30912	-50.46597999999993	-62.52586	1267.40108	7.978080000000081	-29.40756	1369.16795	10.575590000000085	27.73773	1475.29493	11.039430000000088	88.40823	1567.59943	9.64791000000009	349.55111	1588.84338	2.7830500000000757	239.71339	1698.31002	3.525200000000089	162.99398	1647.28744	6.493780000000092	247.78424	1514.81425	6.957630000000077	291.5709	1730.87171	2.5975100000000886	574.97818	1743.2099	-26.99558999999993	481.00385	1720.48166	58.07298000000008	461.70803	1729.10911	-86.73839999999993	461.89357	1781.33769	-9.64790999999992	288.50954	1658.32687	201.02900000000008	281.08807	1658.2341	-190.3606399999999	355.58105	1403.3067	188.78357000000005	336.84185	1397.64783	134.88517000000004	376.63947	1421.39653	-191.28831999999994	359.66286	1410.54263	-137.57544999999993	454.93595	1186.32155	187.57759000000004	497.05277	1212.01838	194.72075000000007	322.9266	1393.19495	159.93262000000004	480.35447	1204.78245	-197.41102999999995	522.00746	1231.49973	-203.81204999999994	344.72716	1408.31619	-162.62289999999993	508.55605	1126.02213	352.24139	481.09662	1122.5897	270.51248	484.43628	1165.72698	212.25396000000006	601.04608	1151.99726	-334.70818	541.2105	1145.03964	-272.92446	518.38949	1185.5794	-217.26345999999995	20.68734000000001	1209.23533	146.4812100000001	193.32922	894.00851	104.08608000000004	199.63747	900.59506	34.231520000000046	229.97272	918.22104	71.80270000000004	18.27535999999999	1241.05487	-148.2438099999999	363.18806	1134.27851	-124.03126999999996	366.43495	1142.07105	-54.08393999999995	374.13472	1176.4881	-91.37681999999995	243.70243	863.58049	67.07151000000005	141.19342	502.89718	105.10653000000002	139.52359	501.96949	45.456490000000024	395.84251	1097.54225	-94.53093999999996	199.08086	779.25407	-139.61634999999995	203.81205	773.5952	-80.43014999999997	62.154790000000006	451.87459	75.04959000000002	197.22549	370.23845	22.17163000000001	201.40007	363.28082	100.18981000000001	218.0056	355.02444	58.07298000000001	96.66461	433.692	71.52439000000003	286.09756	312.35101	50.65151000000001	126.16494	721.83046	-112.89906999999997	267.35836	642.51353	-74.49297999999997	268.65712	644.73997	-152.88223	287.39632	632.77286	-112.62076999999996	161.69522	705.3177	-112.71352999999998	357.99303	593.43908	-112.52799999999999	
122	2.017	0.0	1249.96063	7.653801422948546E-14	72.73038000000001	1334.93643	124.68065000000009	46.291399999999996	1353.7684	-123.10358999999991	27.552200000000006	1397.27676	113.08461000000008	5.4733299999999945	1412.86184	-93.04664999999991	-44.71434	1191.42381	52.78519000000007	-55.75377	1199.21635	-50.28043999999993	-62.52586	1267.49385	7.978080000000081	-29.3148	1369.16795	10.390050000000086	28.01604	1475.29493	10.761130000000088	88.87207	1567.50666	9.46237000000009	350.01495	1588.10123	3.1541200000000758	240.45554	1697.84618	3.8035000000000894	163.64335	1647.00913	6.586550000000091	248.06254	1514.3504	6.957630000000077	292.40581	1730.22233	3.0613600000000885	575.90586	1742.37499	-25.97513999999993	481.65323	1719.55397	59.00067000000008	462.72849	1728.45974	-85.90347999999993	462.72849	1780.59554	-8.81298999999992	288.88061	1657.58472	201.21453000000008	282.01576	1657.9558	-190.1750999999999	356.3232	1402.75009	189.06188000000006	337.67676	1397.09122	135.16347000000005	377.65992	1421.30376	-190.82447999999994	360.68331	1410.44986	-137.11160999999996	456.14193	1185.95048	188.04143000000005	498.16599	1211.83284	195.27736000000004	323.66874	1392.63834	160.21093000000005	481.46769	1204.68968	-196.94718999999995	523.12068	1231.40696	-203.34819999999993	345.74761	1408.13065	-162.25182999999996	509.76204	1125.83659	352.798	482.30261	1122.40416	271.06909	485.5495	1165.44867	212.81057000000007	602.25207	1151.99726	-334.24433	542.41649	1145.03964	-272.46062	519.59548	1185.5794	-216.79960999999994	21.243950000000012	1209.6064	146.4812100000001	197.03996	896.23495	103.99331000000004	203.16267	902.8215	34.138750000000044	233.40515	920.72579	71.61716000000004	18.27535999999999	1240.6838	-148.2438099999999	363.46636	1135.02066	-123.75296999999996	366.71325	1143.0915	-53.80563999999995	374.32026	1177.41579	-91.19127999999996	245.8361	864.22987	66.79321000000004	129.69014	507.72113	105.19930000000001	127.74201	506.97899	45.54926000000002	398.06895	1099.67592	-93.88155999999995	213.9238	773.5952	-136.83329999999995	218.84052	768.49294	-77.55432999999996	48.888920000000006	459.38883	75.88450000000003	180.99103	372.92873	23.09932000000001	185.35115	366.62048	101.11749000000002	201.49284	357.43642	59.00067000000001	82.84213	440.09301	72.45207000000003	268.19327	312.53654	51.57920000000001	143.60539	713.11024	-109.83771999999998	288.23124	640.47263	-71.06054999999998	289.52999	642.42076	-149.4498	308.73304	631.38133	-109.09556999999997	179.78505	698.2673	-109.55940999999997	380.99958	595.38721	-108.81725999999999	
123	2.033	0.0	1249.96063	7.653801422948546E-14	72.73038000000001	1335.3075	124.49511000000008	46.38416999999999	1353.39733	-123.38188999999991	27.552200000000006	1397.55506	112.62077000000008	5.658869999999995	1412.58353	-93.51048999999992	-44.80711	1191.60934	52.87795000000007	-55.75377	1199.12358	-50.187669999999926	-62.52586	1267.58662	7.88531000000008	-29.22203	1369.26072	10.018980000000086	28.29434	1475.29493	10.482820000000089	89.33591	1567.41389	9.36960000000009	350.47879	1587.45186	3.525200000000076	241.19769	1697.38234	4.267340000000089	164.29273	1646.73083	6.772090000000092	248.43362	1513.88656	6.957630000000077	293.14796	1729.75849	3.7107300000000882	576.74078	1741.54007	-24.490839999999928	482.30261	1718.71906	60.113890000000076	463.74894	1727.81036	-84.79025999999993	463.5634	1779.76063	-7.606999999999919	289.15892	1656.84258	201.5856100000001	282.94344	1657.86303	-189.80402999999993	356.97258	1402.28625	189.43295000000006	338.41891	1396.44184	135.44178000000005	378.68037	1421.30376	-190.45339999999993	361.70376	1410.54263	-136.74053999999995	457.44069	1185.67217	188.50527000000005	499.37198	1211.64731	195.74120000000005	324.41089	1391.98896	160.48923000000005	482.67368	1204.87522	-196.48334999999994	524.2339	1231.5925	-202.88435999999993	346.76806	1408.22342	-161.88075999999995	510.96802	1125.83659	353.35461	483.60136	1122.21862	271.6257	486.84826	1165.26314	213.27442000000005	603.45806	1152.1828	-333.78049	543.62248	1145.22517	-271.99678	520.7087	1185.76494	-216.33576999999994	21.70779000000001	1210.07024	146.4812100000001	202.23498	899.38907	103.71501000000005	208.26493	906.06839	33.86044000000004	238.13633	924.43652	71.33885000000004	18.08982999999999	1239.94165	-148.2438099999999	363.09529	1133.44359	-123.66019999999996	366.52772	1141.88551	-53.80563999999995	374.13472	1176.02426	-91.46957999999995	249.17576	865.8997	66.32936000000004	118.83625	514.30768	104.73546000000002	116.60981	513.65831	45.085410000000024	399.55325	1099.49038	-93.60325999999996	228.30289	766.17373	-133.86471999999995	233.40515	761.72085	-74.58574999999998	36.45796000000001	468.57289	76.25558000000002	165.59149	377.56715	23.841460000000016	170.04437	371.81551	101.85964000000001	185.72222	361.79653	59.83558000000001	69.76179	448.16386	72.82315000000003	250.93836	314.67021	52.599650000000004	160.67477	702.90572	-106.59081999999997	308.36197	636.85466	-67.44257999999998	309.56795	638.43172	-145.83183	329.23484	628.50551	-105.47759999999997	197.5038	689.63985	-106.21974999999998	402.98567	595.66552	-104.92098999999999	
124	2.05	0.0	1249.96063	7.653801422948546E-14	72.63761000000001	1335.77135	124.21681000000008	46.662479999999995	1352.84072	-123.75296999999992	27.459430000000008	1398.0189	112.06416000000009	5.8444099999999946	1412.21246	-94.15986999999991	-44.89988	1191.88765	53.06349000000007	-55.661	1198.93804	-50.09489999999993	-62.52586	1267.67938	7.792540000000081	-29.12926	1369.35349	9.555140000000085	28.47988	1475.29493	10.01898000000009	89.61422	1567.32113	9.091300000000091	350.84987	1586.89525	4.081810000000075	241.7543	1697.01127	4.731190000000089	164.75657	1646.54529	6.864860000000092	248.61915	1513.51549	6.957630000000077	293.79734	1729.29465	4.360110000000088	577.48292	1740.79792	-22.72823999999993	482.67368	1717.88414	61.41264000000008	464.67662	1727.34652	-83.58427999999994	464.30555	1779.11125	-6.2154799999999195	289.06615	1656.10043	201.9566800000001	283.87112	1657.86303	-189.52571999999992	357.52919	1401.82241	189.61849000000007	339.06829	1396.07077	135.62731000000005	379.60805	1421.48929	-190.17509999999993	362.53868	1410.6354	-136.46222999999995	458.55391	1185.5794	188.87634000000006	500.4852	1211.64731	196.11227000000005	325.06027	1391.52512	160.67477000000005	483.69413	1205.06075	-196.20503999999994	525.25435	1231.8708	-202.60605999999996	347.60297	1408.31619	-161.60244999999995	512.08124	1125.92936	353.81845	484.71458	1122.21862	271.99678	487.96148	1165.26314	213.73826000000005	604.47851	1152.4611	-333.50219	544.64293	1145.50348	-271.71847	521.82192	1185.95048	-216.05746999999994	22.17163000000001	1210.62685	146.4812100000001	208.26493	903.19257	103.71501000000005	214.10933	910.05743	33.76768000000004	243.70243	928.98217	71.24609000000004	17.90428999999999	1238.73566	-148.2438099999999	362.07484	1129.45456	-123.75296999999996	365.6928	1138.45308	-53.89840999999995	373.57811	1172.22076	-91.93342999999996	253.35034	868.40444	66.14383000000004	108.81726	522.37853	103.99331000000002	106.49806	521.91469	44.43604000000002	400.29539	1097.0784	-93.41771999999996	241.38322	757.36074	-131.17442999999997	246.67102	753.55724	-71.89545999999997	25.140220000000003	479.05571	76.34834000000002	151.30516	383.78263	24.490840000000013	155.94358	378.77314	102.60179000000001	171.06482	367.82647	60.57773000000002	57.701910000000005	457.62623	73.00868000000003	234.88944	318.84479	53.62010000000001	176.44539	691.49522	-103.71500999999998	326.63733	631.7524	-64.01015999999997	327.93609	633.14393	-142.49217	347.97405	624.23817	-101.95240999999997	213.83103	679.80641	-103.25115999999997	423.02364	594.45953	-101.21025999999999	
